M48
; DRILL file KiCad 10.0.4 date 2026-09-12T23:16:48
; FORMAT={-:-/ absolute / metric / decimal}
; #@! TF.CreationDate,2026-09-12T23:16:48-04:00
; #@! TF.GenerationSoftware,Kicad,Pcbnew,10.0.4
; #@! TF.FileFunction,Plated,1,2,PTH
FMAT,2
METRIC
; #@! TA.AperFunction,Plated,PTH,ViaDrill
T1C0.300
; #@! TA.AperFunction,Plated,PTH,ComponentDrill
T2C0.900
; #@! TA.AperFunction,Plated,PTH,ComponentDrill
T3C1.000
; #@! TA.AperFunction,Plated,PTH,ComponentDrill
T4C1.020
; #@! TA.AperFunction,Plated,PTH,ComponentDrill
T5C1.100
; #@! TA.AperFunction,Plated,PTH,ComponentDrill
T6C1.600
%
G90
G05
T1
X104.5Y-73.5
X105.0Y-116.5
T2
X71.57Y-73.935
X71.57Y-76.475
X71.57Y-79.015
X71.57Y-81.555
X71.57Y-84.095
X71.57Y-86.635
X71.57Y-89.175
X71.57Y-91.715
X71.57Y-94.255
X71.57Y-96.795
X71.57Y-99.335
X71.57Y-101.875
X71.57Y-104.415
X71.57Y-106.955
X71.57Y-109.495
X94.43Y-73.935
X94.43Y-76.475
X94.43Y-79.015
X94.43Y-81.555
X94.43Y-84.095
X94.43Y-86.635
X94.43Y-89.175
X94.43Y-91.715
X94.43Y-94.255
X94.43Y-96.795
X94.43Y-99.335
X94.43Y-101.875
X94.43Y-104.415
X94.43Y-106.955
X94.43Y-109.495
T3
X99.0Y-88.5
X99.0Y-93.09
X99.96Y-117.5
X102.5Y-117.5
T4
X112.08Y-80.65
X112.08Y-93.35
T5
X99.05Y-77.96
X99.05Y-80.5
X99.05Y-83.04
T6
X101.0Y-97.88
X101.0Y-113.12
M30
